<?xml version="1.0" encoding="UTF-8"?>
<svg version="1.1" xmlns="http://www.w3.org/2000/svg" width="300" height="288">
<path d="M0 0 C1.75 0.125 1.75 0.125 4 1 C8.03575349 6.18882592 9.14276367 9.9865207 9.1875 16.4375 C9.20167969 17.36433594 9.21585937 18.29117187 9.23046875 19.24609375 C9 22 9 22 7.8515625 24.55078125 C6.72608167 26.98218154 6.72608167 26.98218154 7.79296875 29.359375 C8.25316406 30.14828125 8.71335937 30.9371875 9.1875 31.75 C12.14813837 37.16165867 15 42.72715701 15 49 C13.02 48.505 13.02 48.505 11 48 C10.34 53.61 9.68 59.22 9 65 C7.02 64.505 7.02 64.505 5 64 C4.94508467 65.68712082 4.90680082 67.37478525 4.875 69.0625 C4.85179687 70.00222656 4.82859375 70.94195312 4.8046875 71.91015625 C5.03504213 75.55436651 5.89805116 78.52495661 7 82 C8.93124895 80.34811411 10.84365915 78.68023996 12.75 77 C13.28882813 76.54238281 13.82765625 76.08476563 14.3828125 75.61328125 C19.3885929 71.15691577 22.68124314 66.78455724 23.25732422 59.94482422 C23.28618403 56.43354681 23.201322 52.94608334 23.0625 49.4375 C22.72718545 40.17381006 22.52474269 34.14127003 27.80078125 26.3359375 C44.19743552 8.91995304 74.30015531 2.64431821 97 1 C97.33 2.32 97.66 3.64 98 5 C97.49210938 5.32871094 96.98421875 5.65742187 96.4609375 5.99609375 C88.92308257 11.2048362 84.68928172 17.25355103 82 26 C83.54107422 25.89171875 83.54107422 25.89171875 85.11328125 25.78125 C99.70201528 24.78604132 113.47332832 25.31400287 128 27 C128 27.66 128 28.32 128 29 C127.34 29 126.68 29 126 29 C126 29.66 126 30.32 126 31 C125.14277344 31.268125 124.28554687 31.53625 123.40234375 31.8125 C115.74418501 34.43716771 110.3841598 37.01457205 106 44 C104.9458482 47.16245541 104.68724328 49.86948218 104.4375 53.1875 C104.35371094 54.27417969 104.26992187 55.36085937 104.18359375 56.48046875 C104.12300781 57.31191406 104.06242188 58.14335938 104 59 C103.16597656 59.14695313 102.33195313 59.29390625 101.47265625 59.4453125 C93.34290303 61.06567569 86.07970637 63.03441453 80.6328125 69.6640625 C78.64667068 72.83898994 77.93944308 75.55942285 77.5625 79.1875 C77.1328125 81.2265625 77.1328125 81.2265625 76 83 C72.85643304 84.33943288 69.70793691 85.12103099 66.3984375 85.96484375 C57.81088334 88.58059301 53.19518027 94.42285647 48.99609375 102.05859375 C48.66738281 102.69925781 48.33867187 103.33992188 48 104 C43.96555984 102.69509205 40.05019466 101.2256638 36.125 99.625 C28.57935686 96.68525233 20.87510518 94.80955562 13 93 C13 92.34 13 91.68 13 91 C11.02 90.01 11.02 90.01 9 89 C9 89.66 9 90.32 9 91 C6.22910257 90.6338021 5.13445258 90.13728913 3.1484375 88.109375 C2.56320313 87.33078125 1.97796875 86.5521875 1.375 85.75 C0.48941406 84.59757812 0.48941406 84.59757812 -0.4140625 83.421875 C-4.69678132 76.88176252 -4.70092849 70.63135897 -4 63 C-2.52361783 56.83442672 0.26135815 51.48985833 3.25 45.9375 C6.1044483 40.45093481 6.72934691 36.10490377 6 30 C4.68 30 3.36 30 2 30 C1.01 28.515 1.01 28.515 0 27 C-4.84824868 27.41556417 -6.88036862 29.37448245 -10 33 C-11.99776182 35.72422066 -12.01426594 36.81454284 -11.75 40.25 C-11.05046137 44.0383198 -11.05046137 44.0383198 -9.875 47.8125 C-7.39934112 57.73417903 -11.09289995 65.47607258 -16 74 C-17.15364726 75.89950068 -18.32041522 77.79051701 -19.48852539 79.68115234 C-24.43218915 87.69610874 -28.77190788 95.22250019 -28 105 C-27.62875 103.783125 -27.2575 102.56625 -26.875 101.3125 C-24.81354101 95.81851731 -21.63311033 93.31655516 -16.375 90.6875 C-14 90 -14 90 -10 90 C-11.06065298 93.00518345 -12.19152429 95.26697326 -14.0625 97.875 C-16.29476487 101.4754272 -16.92453433 103.77392245 -17 108 C-16.03238392 110.01586684 -15.03432904 112.01753602 -14 114 C-14.34154581 117.97910851 -15.54918444 120.01657456 -18.16015625 122.96484375 C-22.7583898 128.63243394 -25.50805781 134.92071577 -28.4375 141.5625 C-28.97826172 142.76197266 -29.51902344 143.96144531 -30.07617188 145.19726562 C-31.39505559 148.12682149 -32.70263684 151.06086645 -34 154 C-30.38584641 149.31640567 -27.01322417 144.64037362 -24.0625 139.5 C-23.72532959 138.91831055 -23.38815918 138.33662109 -23.04077148 137.73730469 C-21.18148253 134.43829891 -19.60971421 131.14525283 -18.25 127.609375 C-14.01747127 116.60626526 -14.01747127 116.60626526 -10.73828125 114.65234375 C-8.45416335 114.20307097 -6.32108058 114.08258526 -4 114 C-0.27014087 112.22530709 -0.27014087 112.22530709 2 109 C2.07065617 106.95944995 2.08421976 104.91665743 2.0625 102.875 C2.05347656 101.77929688 2.04445313 100.68359375 2.03515625 99.5546875 C2.02355469 98.71164063 2.01195313 97.86859375 2 97 C5.68656302 98.59544534 7.33861152 100.39228119 9.23828125 104.00390625 C11.0163654 108.66339855 10.53643986 112.70766762 8.625 117.3125 C7.46175508 119.23632814 6.2470585 121.12941224 5 123 C21.15099383 124.33971377 36.31257502 119.52732638 50.91796875 112.8828125 C53 112 53 112 55 112 C55 110.68 55 109.36 55 108 C58.77030899 109.36487888 61.82057762 111.11615604 65.125 113.375 C71.49798551 117.50627498 78.03173411 120.23537008 85.49829102 121.67407227 C89 123 89 123 90.64916992 125.67041016 C91.00599854 126.78206543 91.36282715 127.8937207 91.73046875 129.0390625 C92.14103516 130.25980469 92.55160156 131.48054687 92.97460938 132.73828125 C93.38015058 134.0334652 93.78443922 135.32904199 94.1875 136.625 C95.0044135 139.14138819 95.83646457 141.65241914 96.66796875 144.1640625 C97.05645996 145.34645508 97.44495117 146.52884766 97.84521484 147.74707031 C99.25531022 151.71918675 100.97717759 155.30776784 103 159 C102.73783691 158.22922119 102.47567383 157.45844238 102.20556641 156.66430664 C101.00719364 153.13199558 99.81604959 149.59728673 98.625 146.0625 C98.00625 144.24395508 98.00625 144.24395508 97.375 142.38867188 C90.93006705 123.20979884 90.93006705 123.20979884 94 114 C94.50723134 107.78641607 94.78986129 102.21105927 91 97 C86.03560041 91.70930185 80.76741029 88.52211356 74 86 C74 85.34 74 84.68 74 84 C76.93347886 83.19012491 79.8700845 82.40129112 82.8125 81.625 C83.71162109 81.37935303 84.61074219 81.13370605 85.53710938 80.88061523 C90.16376464 79.68798249 94.34620849 78.85396692 99.13671875 78.99609375 C106.29547043 79.20920998 106.29547043 79.20920998 113 77 C118.04527503 71.64217389 120.77200999 64.60308615 123.66796875 57.93554688 C125.66763116 53.52866623 128.11775623 49.42020829 130.5625 45.25 C137.31576477 33.33739535 137.31576477 33.33739535 137 20 C136.04415562 17.66411677 136.04415562 17.66411677 135 16 C134.01 16 133.02 16 132 16 C131.04078278 14.25048432 130.08266183 12.50036756 129.125 10.75 C128.59132812 9.77546875 128.05765625 8.8009375 127.5078125 7.796875 C126.29580534 5.54869592 125.12452433 3.2927195 124 1 C129.72267312 1.45178998 135.39353454 3.56466983 140 7 C140.6953125 9.44921875 140.6953125 9.44921875 141 12 C141.515625 13.175625 142.03125 14.35125 142.5625 15.5625 C145.82620848 24.2332479 144.466546 32.68500145 140.95703125 41.0390625 C137.45545889 48.39491177 133.24534829 55.41027043 129.15625 62.44921875 C126.22003047 67.53134325 123.5540554 72.71676633 121 78 C121.97839844 78.29132813 122.95679688 78.58265625 123.96484375 78.8828125 C136.99665943 82.89784969 146.73608288 88.17020353 153.9375 100.25 C156.34299728 108.73999041 155.81145762 117.98651137 152 126 C149.08025163 130.42866225 145.4427506 134.8187402 140.26953125 136.59375 C131.60870282 138.1440532 122.83504303 138.21106677 115.09375 133.6953125 C110.38567471 129.88317691 107.22981316 124.92381297 106 119 C105.20447556 108.10252045 105.29195007 97.35163939 109 87 C102.07 87.99 102.07 87.99 95 89 C95 89.66 95 90.32 95 91 C95.61488281 91.2578125 96.22976562 91.515625 96.86328125 91.78125 C100.51379419 93.86344385 101.63773803 97.14563792 103 101 C104.22423005 106.32848333 104.131246 110.98169695 103 116.3125 C100.17408556 130.40282337 104.46741212 148.7099882 112 161 C113.90843583 162.45463152 113.90843583 162.45463152 116.0625 163.25 C118.65102028 164.34903654 119.97321596 164.97321596 122 167 C122.26991906 169.68839385 122.08737357 172.29141936 122 175 C120.02 175.99 120.02 175.99 118 177 C117.67 175.35 117.34 173.7 117 172 C115.02270019 171.47212358 113.04309608 170.95287097 111.0625 170.4375 C109.96035156 170.14746094 108.85820312 169.85742188 107.72265625 169.55859375 C106.82417969 169.37425781 105.92570313 169.18992188 105 169 C104.67 169.33 104.34 169.66 104 170 C102.26938287 170.20383366 100.53158902 170.34744126 98.79296875 170.46484375 C97.73142578 170.54283203 96.66988281 170.62082031 95.57617188 170.70117188 C93.32898832 170.85789188 91.08159048 171.01157082 88.83398438 171.16210938 C87.23586914 171.28102539 87.23586914 171.28102539 85.60546875 171.40234375 C84.13823364 171.50276978 84.13823364 171.50276978 82.64135742 171.60522461 C79.99074135 172.00138379 78.25428818 172.57072332 76 174 C74.73195434 176.0335948 74.73195434 176.0335948 74 178 C73.01 178 72.02 178 71 178 C70.35696833 175.13108946 69.86346614 172.89871883 70 170 C72.3125 166.875 72.3125 166.875 75 164 C76.25556887 160.82078213 76.25556887 160.82078213 77 158 C78.63012838 156.36987162 80.44437445 156.79023544 82.6875 156.75 C83.96173828 156.71132813 83.96173828 156.71132813 85.26171875 156.671875 C88.6411668 157.07683026 91.04553055 158.3562249 94 160 C93.70754395 159.38068604 93.41508789 158.76137207 93.11376953 158.12329102 C91.77477367 155.27400767 90.44984129 152.41839067 89.125 149.5625 C88.66480469 148.58861328 88.20460937 147.61472656 87.73046875 146.61132812 C85.03002309 140.76036253 83.14193166 135.34625239 82 129 C78.7 128.01 75.4 127.02 72 126 C71.9175 126.9075 71.835 127.815 71.75 128.75 C70.9731113 134.37374653 68.88196771 139.66921705 67 145 C67.969375 145.474375 68.93875 145.94875 69.9375 146.4375 C73 148 73 148 74 149 C74.46993007 156.28391608 74.46993007 156.28391608 72.6875 159 C71 160 71 160 68 160 C68.061875 159.21625 68.12375 158.4325 68.1875 157.625 C68.125625 156.75875 68.06375 155.8925 68 155 C61.75882804 150.8392187 52.1342975 152.65938607 44.9375 153.6875 C40.16298411 154.65226206 37.93583242 156.15304718 35 160 C34.01 159.67 33.02 159.34 32 159 C31.62895292 151.45537597 31.62895292 151.45537597 33.375 149.3125 C33.91125 148.879375 34.4475 148.44625 35 148 C35.33 147.154375 35.66 146.30875 36 145.4375 C37 143 37 143 40 141 C43.13671875 141.0234375 43.13671875 141.0234375 46.6875 141.375 C47.86699219 141.48585937 49.04648438 141.59671875 50.26171875 141.7109375 C51.16535156 141.80632812 52.06898438 141.90171875 53 142 C54.62332428 139.09996873 55.32053986 136.75429294 55.6328125 133.453125 C55.71660156 132.60878906 55.80039063 131.76445312 55.88671875 130.89453125 C55.96535156 130.02183594 56.04398438 129.14914063 56.125 128.25 C56.21136719 127.36183594 56.29773438 126.47367187 56.38671875 125.55859375 C56.59823066 123.37297064 56.80240227 121.18691762 57 119 C50.91385687 120.87676074 45.26572266 123.17876008 39.5625 126 C24.47730477 133.26892085 10.48555133 135.92847181 -6 132 C-5.45276317 128.62537285 -4.9451 126.91765 -3 124 C-5.84709085 126.70576239 -8.11397609 129.42852109 -10.27734375 132.703125 C-10.87353516 133.60160156 -11.46972656 134.50007812 -12.08398438 135.42578125 C-12.69564453 136.35777344 -13.30730469 137.28976563 -13.9375 138.25 C-14.54529297 139.16652344 -15.15308594 140.08304688 -15.77929688 141.02734375 C-22.23068575 150.08038971 -22.23068575 150.08038971 -27 160 C-25.906875 160.268125 -24.81375 160.53625 -23.6875 160.8125 C-18.46974063 162.49279539 -18.46974063 162.49279539 -17 165 C-16.6201852 169.17796282 -16.53470059 172.49667979 -19 176 C-22 178 -22 178 -25 178 C-24.6596875 176.6078125 -24.6596875 176.6078125 -24.3125 175.1875 C-23.66114138 172.07422288 -23.66114138 172.07422288 -25.25 170.1875 C-31.56587437 165.90172811 -43.03625768 167.26210451 -50.34521484 168.34863281 C-59.91960826 170.03618203 -59.91960826 170.03618203 -68 175 C-68.33 175.99 -68.66 176.98 -69 178 C-69.99 178 -70.98 178 -72 178 C-73.60111899 174.79776203 -73.49827144 171.47461286 -73 168 C-71.125 165 -71.125 165 -69 163 C-68.34 163 -67.68 163 -67 163 C-67.0928125 161.6078125 -67.0928125 161.6078125 -67.1875 160.1875 C-67 157 -67 157 -65.77734375 155.32421875 C-62.3339268 152.75868392 -58.09106378 153.54151871 -54 154 C-50.90556007 154.79181257 -47.95837019 155.79950195 -45 157 C-41.01139967 152.65685742 -39.18685132 148.04607032 -37.125 142.625 C-36.42977461 140.84111188 -35.73446116 139.05725808 -35.0390625 137.2734375 C-34.6977832 136.38881836 -34.35650391 135.50419922 -34.00488281 134.59277344 C-32.5346032 130.79919484 -31.01817716 127.02460155 -29.5 123.25 C-29.0153125 122.03828125 -28.530625 120.8265625 -28.03125 119.578125 C-27.6909375 118.72734375 -27.350625 117.8765625 -27 117 C-27.92425781 116.58814453 -27.92425781 116.58814453 -28.8671875 116.16796875 C-33.01904301 113.89433359 -34.659307 109.9198711 -36.25 105.625 C-38.52196766 94.64382299 -35.75104143 86.2692318 -29.75 77 C-26.97941503 72.79744637 -24.0743984 68.70395523 -21.125 64.625 C-15.59326897 56.7316947 -14.52298457 50.61097755 -15 41 C-15.79921875 41.433125 -16.5984375 41.86625 -17.421875 42.3125 C-25.02678167 46.16850902 -31.43206126 48.53915067 -40 47 C-43.18584827 45.68674957 -45.41845423 44.16309155 -47 41 C-48.485 41.495 -48.485 41.495 -50 42 C-54.88435572 42.40035703 -57.10449114 42.46374566 -61.5 40.1875 C-62.325 39.465625 -63.15 38.74375 -64 38 C-64 37.01 -64 36.02 -64 35 C-62.9790625 35.2475 -62.9790625 35.2475 -61.9375 35.5 C-57.17985847 36.30981132 -53.44255289 36.73662275 -49.0625 34.5 C-48.381875 34.005 -47.70125 33.51 -47 33 C-47.515625 32.113125 -48.03125 31.22625 -48.5625 30.3125 C-50.0868937 26.79976669 -50.14947895 25.55293493 -49 22 C-43.35600642 19.55935413 -38.02248522 19.80710901 -32 20 C-31.71125 19.360625 -31.4225 18.72125 -31.125 18.0625 C-30 16 -30 16 -28 15 C-26.54420413 14.90444583 -25.0839204 14.87015309 -23.625 14.875 C-22.46871094 14.87113281 -22.46871094 14.87113281 -21.2890625 14.8671875 C-19.05606578 14.99674704 -17.15379314 15.42332516 -15 16 C-10.58825234 16.48128156 -8.7458231 16.58008463 -5.1875 13.8125 C-1.74638031 9.38820326 -0.76814655 5.5050503 0 0 Z M76.89453125 9.3359375 C76.08330811 9.65369141 75.27208496 9.97144531 74.4362793 10.29882812 C73.57043213 10.65396484 72.70458496 11.00910156 71.8125 11.375 C70.47795776 11.91930664 70.47795776 11.91930664 69.11645508 12.47460938 C50.12195217 20.16682921 50.12195217 20.16682921 36.96484375 35.06640625 C34.61370184 40.82943781 33.9554187 46.60986265 33.76147461 52.81079102 C33.4285056 62.10205503 32.24194138 68.16737384 25.375 74.6875 C20.01155241 79.07668838 13.81015413 82.53175576 7 84 C7.66 85.32 8.32 86.64 9 88 C19.5735394 87.23912496 28.93970142 86.40577878 36.64453125 78.26171875 C41.0402912 72.54849761 42.19461485 66.76435129 42.4375 59.625 C42.88273564 51.92015953 43.82636077 45.40589518 49.23828125 39.44140625 C56.27893727 33.68086951 65.26521655 30.96016794 74 29 C73.34 28.67 72.68 28.34 72 28 C74.49832398 20.1269922 78.19259025 14.83560106 84 9 C80.60548256 7.86849419 80.08040233 8.08382353 76.89453125 9.3359375 Z M-25 22 C-25 22.66 -25 23.32 -25 24 C-24.01 24 -23.02 24 -22 24 C-22 23.34 -22 22.68 -22 22 C-22.99 22 -23.98 22 -25 22 Z M-40 29 C-40 29.33 -40 29.66 -40 30 C-38.35 30 -36.7 30 -35 30 C-35 29.67 -35 29.34 -35 29 C-36.65 29 -38.3 29 -40 29 Z M59 47 C59 47.33 59 47.66 59 48 C60.01835937 48.02578125 61.03671875 48.0515625 62.0859375 48.078125 C75.12491591 48.54963836 87.6616632 50.66700928 100 55 C99.96519531 54.04738281 99.93039063 53.09476563 99.89453125 52.11328125 C99.86746094 50.85902344 99.84039062 49.60476562 99.8125 48.3125 C99.77769531 47.07113281 99.74289063 45.82976563 99.70703125 44.55078125 C100.02084205 40.7473943 100.68882926 38.99061213 103 36 C104.96374635 34.61382611 106.95912192 33.26987969 109 32 C109 31.67 109 31.34 109 31 C91.62583154 30.29716147 73.04785215 37.04943806 59 47 Z M-45 39 C-45 39.33 -45 39.66 -45 40 C-39.34605369 40.34615998 -35.96993194 39.43425238 -31 37 C-32.86000815 34.73660301 -32.86000815 34.73660301 -35.75 34.625 C-39.75620134 35.087254 -41.8601496 36.53297469 -45 39 Z M55 53 C54.34 58.28 53.68 63.56 53 69 C55.0625 69.763125 57.125 70.52625 59.25 71.3125 C63.34619544 72.82809231 66.56993503 74.31731157 70 77 C70.66 77 71.32 77 72 77 C71.938125 75.80375 71.87625 74.6075 71.8125 73.375 C71.81984083 69.22742862 72.7036943 66.52646947 75 63 C80.44491834 57.74283746 87.8373441 57.53790697 95 57 C95 56.67 95 56.34 95 56 C75.49772846 52.57105363 75.49772846 52.57105363 56 55 C55.67 54.34 55.34 53.68 55 53 Z M47.5625 78.125 C47.1809375 78.76050781 46.799375 79.39601563 46.40625 80.05078125 C42.71226577 85.17105383 36.05673796 88.64032413 30 90 C26.67208121 90.42665626 23.34549598 90.74875722 20 91 C20 91.33 20 91.66 20 92 C33.365 93.485 33.365 93.485 47 95 C47.99 92.36 48.98 89.72 50 87 C55.33091819 81.52500294 61.73224908 80.7518363 69 80 C64.64140347 76.16443505 59.55324059 74.97318307 53.875 74.4375 C49.74768745 74.58031116 49.74768745 74.58031116 47.5625 78.125 Z M117 87 C116.51490207 88.37291868 116.03724487 89.74846703 115.5625 91.125 C115.29566406 91.89070313 115.02882812 92.65640625 114.75390625 93.4453125 C112.25268547 101.92095182 111.10822681 112.95035295 114.828125 121.21484375 C118.00939796 126.06098289 121.99544898 129.35568003 127.5 131.125 C132.71102967 130.9388918 136.74940474 129.92766217 140.76953125 126.484375 C144.80401305 122.1259567 146.88717306 117.89958102 147.0625 111.83984375 C146.64395365 104.2144524 143.20092247 98.80981012 137.6875 93.6875 C131.46199871 88.73936939 124.78277311 87.52245468 117 87 Z M-27 113 C-26 115 -26 115 -26 115 Z M58 116 C59 118 59 118 59 118 Z M64 122 C62.73694665 127.07476794 61.72963916 131.72796354 62 137 C64.57146057 134.42853943 64.80117997 132.3949583 65.625 128.875 C65.88539063 127.77929688 66.14578125 126.68359375 66.4140625 125.5546875 C66.60742188 124.71164063 66.80078125 123.86859375 67 123 C66.01 122.67 65.02 122.34 64 122 Z M104 162 C105 165 105 165 105 165 Z " fill="#000000" transform="translate(124,0)"/>
<path d="M0 0 C99 0 198 0 300 0 C300 1.32 300 2.64 300 4 C201 4.33 102 4.66 0 5 C0 3.35 0 1.7 0 0 Z " fill="#000000" transform="translate(0,192)"/>
<path d="M0 0 C3.70886458 0.04120961 4.53905808 0.21450071 7.625 2.5625 C12.75 9.34558824 12.75 9.34558824 12.75 13.375 C13.4203125 13.60445312 14.090625 13.83390625 14.78125 14.0703125 C18.57302886 15.73669953 21.83168307 17.92825206 25.25 20.25 C26.22646484 20.90162109 26.22646484 20.90162109 27.22265625 21.56640625 C30.86845342 24.01903343 34.36012084 26.57183069 37.75 29.375 C36.69124926 32.77812738 35.74097846 35.38853231 33.75 38.375 C29.89896699 37.83824097 28.43202413 36.25899077 26 33.3125 C25.38640625 32.57902344 24.7728125 31.84554687 24.140625 31.08984375 C23.45226562 30.24099609 23.45226562 30.24099609 22.75 29.375 C23.66244206 30.62808709 24.58017771 31.87732026 25.5 33.125 C26.01046875 33.82109375 26.5209375 34.5171875 27.046875 35.234375 C28.70247378 37.44851572 28.70247378 37.44851572 30.90625 39.25 C33.34064729 42.05574603 33.34050726 43.9566669 33.5 47.625 C33.55671875 48.70265625 33.6134375 49.7803125 33.671875 50.890625 C33.69765625 51.71046875 33.7234375 52.5303125 33.75 53.375 C31.30389288 52.99049926 30.02568234 52.65266696 28.2578125 50.87207031 C27.80148438 50.23881836 27.34515625 49.60556641 26.875 48.953125 C26.36453125 48.25703125 25.8540625 47.5609375 25.328125 46.84375 C24.80734375 46.1115625 24.2865625 45.379375 23.75 44.625 C22.7089463 43.19226274 21.66729257 41.75996126 20.625 40.328125 C20.13515625 39.64943359 19.6453125 38.97074219 19.140625 38.27148438 C17.4129451 35.91533665 15.60091078 33.63524682 13.75 31.375 C13.13125 32.179375 12.5125 32.98375 11.875 33.8125 C9.75 36.375 9.75 36.375 7.75 37.375 C5.75039988 37.414992 3.74952758 37.41846799 1.75 37.375 C1.75 36.055 1.75 34.735 1.75 33.375 C2.430625 32.776875 3.11125 32.17875 3.8125 31.5625 C6.08043915 29.44618834 6.08043915 29.44618834 6 26.0625 C4.44849491 21.48555998 2.25105106 19.80109816 -1.53515625 16.953125 C-2.10105469 16.43234375 -2.66695312 15.9115625 -3.25 15.375 C-3.25 14.385 -3.25 13.395 -3.25 12.375 C-8.81717533 14.72956323 -8.81717533 14.72956323 -14.25 17.375 C-13.95583122 14.13914343 -13.53903335 11.83996669 -11.8125 9.0625 C-7.90779502 6.49110891 -3.83923585 6.55016167 0.75 6.375 C-2.72147842 5.62542843 -2.72147842 5.62542843 -6.25 5.375 C-5.22111493 0.81850897 -4.71786314 0.20308682 0 0 Z " fill="#000000" transform="translate(51.25,51.625)"/>
<path d="M0 0 C1.65 0 3.3 0 5 0 C5 10.56 5 21.12 5 32 C-7 33 -7 33 -10.25 30.8125 C-12 28 -12 28 -12 24 C-12.66 24 -13.32 24 -14 24 C-14.0928125 25.3921875 -14.0928125 25.3921875 -14.1875 26.8125 C-15 30 -15 30 -17.0625 31.9375 C-21.23925221 33.44824016 -23.65868113 32.98029781 -28 32 C-30.64365079 30.12386073 -30.95241281 29.14276157 -32 26 C-32.56691614 20.27632746 -32.21722068 15.94957028 -29 11 C-25.54344326 9.27172163 -21.77956563 9.51664525 -18 10 C-15.4375 11.6875 -15.4375 11.6875 -14 14 C-13.75 16.75 -13.75 16.75 -14 19 C-13.34 19 -12.68 19 -12 19 C-11.87625 17.88625 -11.7525 16.7725 -11.625 15.625 C-11 12 -11 12 -9 10 C-5.98173347 9.72759327 -3.03629378 9.91324875 0 10 C0 6.7 0 3.4 0 0 Z M-25 15 C-26.5635348 18.12706959 -26.39958487 21.57982443 -26 25 C-25.01 26.485 -25.01 26.485 -24 28 C-22.02463255 27.65213292 -22.02463255 27.65213292 -20 27 C-18.49065783 23.98131566 -18.82489328 21.32702771 -19 18 C-19.66 17.01 -20.32 16.02 -21 15 C-22.32 15 -23.64 15 -25 15 Z M-6 15 C-7.5635348 18.12706959 -7.39958487 21.57982443 -7 25 C-6.01 26.485 -6.01 26.485 -5 28 C-2.93597032 27.51294288 -2.93597032 27.51294288 -1 26 C-0.07321385 22.42525344 0.40411569 20.0507008 -0.9375 16.5625 C-1.288125 16.046875 -1.63875 15.53125 -2 15 C-3.32 15 -4.64 15 -6 15 Z " fill="#000000" transform="translate(106,208)"/>
<path d="M0 0 C1.98 0 3.96 0 6 0 C6.99 4.62 7.98 9.24 9 14 C10.17217819 10.48346543 11.26448346 7.1899971 12.125 3.625 C12.41375 2.42875 12.7025 1.2325 13 0 C15.31 0 17.62 0 20 0 C21.32 4.95 22.64 9.9 24 15 C24.474375 12.710625 24.94875 10.42125 25.4375 8.0625 C26.875 1.125 26.875 1.125 28 0 C29.66617115 -0.04063832 31.33388095 -0.042721 33 0 C32.37879271 6.42561293 31.36523054 12.63072849 30 18.9375 C29.82210937 19.78634766 29.64421875 20.63519531 29.4609375 21.50976562 C28.13455704 27.73088592 28.13455704 27.73088592 27 30 C25.02 30 23.04 30 21 30 C19.68 24.72 18.36 19.44 17 14 C15.51237607 18.46287179 14.3898155 22.58082765 13.46484375 27.14453125 C13 29 13 29 12 30 C10.00041636 30.04080783 7.99954746 30.04254356 6 30 C4.99282887 25.75166645 3.99550625 21.50108076 3 17.25 C2.71382813 16.0434375 2.42765625 14.836875 2.1328125 13.59375 C1.86210938 12.43359375 1.59140625 11.2734375 1.3125 10.078125 C1.06113281 9.00981445 0.80976562 7.94150391 0.55078125 6.84082031 C0 4 0 4 0 0 Z " fill="#000000" transform="translate(5,256)"/>
<path d="M0 0 C3.00072678 0.47685968 4.60950591 0.39841568 7.75 -0.125 C11 -0.5 11 -0.5 13.17871094 0.68481445 C15 2.5 15 2.5 15.45410156 4.67651367 C15.42268066 5.90978394 15.42268066 5.90978394 15.390625 7.16796875 C15.37128906 8.50698242 15.37128906 8.50698242 15.3515625 9.87304688 C15.31804687 10.80181641 15.28453125 11.73058594 15.25 12.6875 C15.23195313 13.62787109 15.21390625 14.56824219 15.1953125 15.53710938 C15.1481655 17.85909889 15.08238231 20.1790369 15 22.5 C13.35 22.5 11.7 22.5 10 22.5 C9.67 17.22 9.34 11.94 9 6.5 C8.01 6.5 7.02 6.5 6 6.5 C5.67 11.78 5.34 17.06 5 22.5 C3.35 22.5 1.7 22.5 0 22.5 C-0.66 16.89 -1.32 11.28 -2 5.5 C-2.99 5.5 -3.98 5.5 -5 5.5 C-5 11.11 -5 16.72 -5 22.5 C-6.98 22.5 -8.96 22.5 -11 22.5 C-11 15.24 -11 7.98 -11 0.5 C-3.22222222 -0.61111111 -3.22222222 -0.61111111 0 0 Z " fill="#000000" transform="translate(251,217.5)"/>
<path d="M0 0 C1.65 0 3.3 0 5 0 C6.13357275 3.32514673 7.1469752 6.5879008 8 10 C8.99 6.7 9.98 3.4 11 0 C12.98 0 14.96 0 17 0 C17.99 3.3 18.98 6.6 20 10 C20.99 6.7 21.98 3.4 23 0 C24.65 0 26.3 0 28 0 C26.45454545 18.54545455 26.45454545 18.54545455 23 22 C21.00041636 22.04080783 18.99954746 22.04254356 17 22 C15.80712589 18.12315913 15 15.08378077 15 11 C14.34 11 13.68 11 13 11 C12.93941406 11.62648437 12.87882812 12.25296875 12.81640625 12.8984375 C12.73261719 13.71570313 12.64882813 14.53296875 12.5625 15.375 C12.48128906 16.18710938 12.40007813 16.99921875 12.31640625 17.8359375 C12 20 12 20 11 22 C9.02 22 7.04 22 5 22 C4.15820605 19.27318889 3.32636931 16.54398557 2.5 13.8125 C2.26152344 13.04357422 2.02304687 12.27464844 1.77734375 11.48242188 C0.59786383 7.55643872 -0.3326262 4.14951179 0 0 Z " fill="#000000" transform="translate(46,218)"/>
<path d="M0 0 C3.95851252 -0.05373546 7.91630255 -0.0935461 11.875 -0.125 C13.00292969 -0.14175781 14.13085938 -0.15851563 15.29296875 -0.17578125 C16.36933594 -0.18222656 17.44570312 -0.18867188 18.5546875 -0.1953125 C19.54968262 -0.20578613 20.54467773 -0.21625977 21.56982422 -0.22705078 C24 0 24 0 26 2 C26.22705078 4.06298828 26.22705078 4.06298828 26.1953125 6.5703125 C26.18886719 7.46621094 26.18242187 8.36210937 26.17578125 9.28515625 C26.15902344 10.22230469 26.14226562 11.15945313 26.125 12.125 C26.11597656 13.06988281 26.10695312 14.01476562 26.09765625 14.98828125 C26.07404522 17.32577292 26.04111516 19.66276123 26 22 C24.35 22 22.7 22 21 22 C20.67 16.72 20.34 11.44 20 6 C19.01 5.67 18.02 5.34 17 5 C16.67 10.61 16.34 16.22 16 22 C14.35 22 12.7 22 11 22 C10.67 16.39 10.34 10.78 10 5 C9.01 5.33 8.02 5.66 7 6 C6.67 11.28 6.34 16.56 6 22 C4.02 22 2.04 22 0 22 C0 14.74 0 7.48 0 0 Z " fill="#000000" transform="translate(219,263)"/>
<path d="M0 0 C0.89203125 0.10183594 1.7840625 0.20367187 2.703125 0.30859375 C3.37859375 0.39238281 4.0540625 0.47617188 4.75 0.5625 C4.75 2.5425 4.75 4.5225 4.75 6.5625 C3.5125 6.35625 2.275 6.15 1 5.9375 C-1.58855845 5.62193369 -3.09509193 5.51765819 -5.625 6.25 C-7.70879099 7.93306195 -8.41825487 8.99795251 -9.25 11.5625 C-9.5954936 15.36292964 -9.52428378 17.89844452 -8.0625 21.4375 C-5.87503298 24.0021165 -4.55133235 24.2948244 -1.25 24.5625 C-0.92 22.2525 -0.59 19.9425 -0.25 17.5625 C-1.57 17.5625 -2.89 17.5625 -4.25 17.5625 C-4.25 15.9125 -4.25 14.2625 -4.25 12.5625 C-0.95 12.5625 2.35 12.5625 5.75 12.5625 C5.75 17.8425 5.75 23.1225 5.75 28.5625 C1.48466173 30.69516914 -1.61050192 31.13461537 -6.25 30.5625 C-9.92389249 29.2454442 -11.73209035 28.25899919 -14.0625 25.125 C-16.76472966 19.29387285 -17.09374971 14.05156164 -15 7.875 C-13.09703801 4.2729648 -11.43434784 1.32536335 -7.44921875 -0.06640625 C-4.83862057 -0.50691571 -2.6260694 -0.3109819 0 0 Z " fill="#000000" transform="translate(125.25,255.4375)"/>
<path d="M0 0 C1.65 0 3.3 0 5 0 C5.33 2.97 5.66 5.94 6 9 C7.093125 8.938125 8.18625 8.87625 9.3125 8.8125 C13 9 13 9 14.7121582 10.2199707 C16.37442495 12.51752272 16.34679997 13.85080135 16.29296875 16.66796875 C16.28330078 17.56064453 16.27363281 18.45332031 16.26367188 19.37304688 C16.23853516 20.30181641 16.21339844 21.23058594 16.1875 22.1875 C16.16719727 23.59805664 16.16719727 23.59805664 16.14648438 25.03710938 C16.11113096 27.35865038 16.06178674 29.67903653 16 32 C14.35 32 12.7 32 11 32 C10.67 26.06 10.34 20.12 10 14 C6.88214887 14.64644661 6.88214887 14.64644661 6 17 C5.76827173 19.54615009 5.58105471 22.07396225 5.4375 24.625 C5.39431641 25.33140625 5.35113281 26.0378125 5.30664062 26.765625 C5.20055249 28.51018537 5.09977111 30.25506697 5 32 C3.35 32 1.7 32 0 32 C0 21.44 0 10.88 0 0 Z " fill="#000000" transform="translate(81,254)"/>
<path d="M0 0 C1.65 0 3.3 0 5 0 C5 3.3 5 6.6 5 10 C5.721875 9.79375 6.44375 9.5875 7.1875 9.375 C10.48133402 8.93582213 12.08860203 9.46342885 15 11 C16.17426264 13.34852528 16.11508173 14.73774065 16.09765625 17.3515625 C16.09443359 18.20234375 16.09121094 19.053125 16.08789062 19.9296875 C16.07951172 20.81914062 16.07113281 21.70859375 16.0625 22.625 C16.05798828 23.5221875 16.05347656 24.419375 16.04882812 25.34375 C16.03702591 27.56256648 16.02056155 29.78125018 16 32 C14.35 32 12.7 32 11 32 C10.67 26.39 10.34 20.78 10 15 C8.68 15 7.36 15 6 15 C5.67 20.61 5.34 26.22 5 32 C3.35 32 1.7 32 0 32 C0 21.44 0 10.88 0 0 Z " fill="#000000" transform="translate(174,208)"/>
<path d="M0 0 C1.65 0 3.3 0 5 0 C6.32 3.3 7.64 6.6 9 10 C9.99 6.7 10.98 3.4 12 0 C13.65 0 15.3 0 17 0 C16.4405585 6.80308489 15.07559562 12.92511155 13.0625 19.4375 C12.79759766 20.33404297 12.53269531 21.23058594 12.25976562 22.15429688 C10.25962189 28.74037811 10.25962189 28.74037811 8 31 C4.375 31.125 4.375 31.125 1 31 C1 29.35 1 27.7 1 26 C2.32 26 3.64 26 5 26 C4.50274065 19.65994334 2.86667685 14.07357712 0.83984375 8.05078125 C0.05216933 5.18950813 -0.16934781 2.94446675 0 0 Z " fill="#000000" transform="translate(28,218)"/>
<path d="M0 0 C0.97324219 0.01546875 1.94648438 0.0309375 2.94921875 0.046875 C5.3125 0.25 5.3125 0.25 6.3125 1.25 C6.35313832 2.91617115 6.355221 4.58388095 6.3125 6.25 C5.40757812 6.18039063 5.40757812 6.18039063 4.484375 6.109375 C-0.597782 5.8725677 -0.597782 5.8725677 -5.25 7.6875 C-7.36019559 11.44915302 -7.3268411 15.02737503 -6.6875 19.25 C-5.44136649 22.42627397 -5.44136649 22.42627397 -2.6875 24.25 C-1.14726004 24.31950541 0.39584988 24.33452357 1.9375 24.3125 C2.75476563 24.30347656 3.57203125 24.29445312 4.4140625 24.28515625 C5.04054687 24.27355469 5.66703125 24.26195312 6.3125 24.25 C6.3125 26.23 6.3125 28.21 6.3125 30.25 C4.41739301 30.33160748 2.52125496 30.38946459 0.625 30.4375 C-0.95861328 30.48970703 -0.95861328 30.48970703 -2.57421875 30.54296875 C-6.09311632 30.21183033 -7.86671976 29.33578821 -10.6875 27.25 C-14.65926032 21.90866715 -14.48378998 15.62907028 -13.6875 9.25 C-10.57743321 2.91879261 -7.11903914 -0.1900945 0 0 Z " fill="#000000" transform="translate(215.6875,209.75)"/>
<path d="M0 0 C3.1850357 1.76015131 3.83296972 2.49890916 5 6 C5.12781786 8.67394964 5.04391871 11.32095857 5 14 C1.37 14 -2.26 14 -6 14 C-5.01 15.485 -5.01 15.485 -4 17 C-2.02252878 17.36297936 -2.02252878 17.36297936 0.125 17.1875 C1.40375 17.125625 2.6825 17.06375 4 17 C4 18.65 4 20.3 4 22 C0.55258453 23.72370774 -3.23035339 23.50306672 -7 23 C-9.50160818 21.12379387 -10.61945652 19.76108697 -12 17 C-12.41676403 12.02287573 -12.65548795 7.48974534 -10.625 2.875 C-7.51784406 -0.71017993 -4.56302183 -0.31469116 0 0 Z M-5 5 C-5.33 6.32 -5.66 7.64 -6 9 C-4.35 9 -2.7 9 -1 9 C-1.33 7.68 -1.66 6.36 -2 5 C-2.99 5 -3.98 5 -5 5 Z " fill="#000000" transform="translate(49,263)"/>
<path d="M0 0 C2.16015625 0.35546875 2.16015625 0.35546875 4.66015625 2.10546875 C7.50934289 6.37924871 7.51165811 10.25869174 7.16015625 15.35546875 C5.58291323 19.3361297 4.75014714 20.96214149 1.16015625 23.35546875 C-2.21484375 23.79296875 -2.21484375 23.79296875 -5.83984375 23.35546875 C-8.9993868 20.81409716 -10.55525261 19.20924216 -11.83984375 15.35546875 C-12.13356595 10.06846907 -11.94174961 5.97018899 -8.54296875 1.7421875 C-5.82796387 -0.46842427 -3.37957576 -0.11540015 0 0 Z M-3.83984375 5.35546875 C-6.44689273 7.96251773 -6.07889708 9.82885116 -6.10546875 13.3828125 C-5.94366889 15.67499201 -5.94366889 15.67499201 -3.83984375 18.35546875 C-1.8644763 18.00760167 -1.8644763 18.00760167 0.16015625 17.35546875 C1.66949842 14.33678441 1.33526297 11.68249646 1.16015625 8.35546875 C0.50015625 7.36546875 -0.15984375 6.37546875 -0.83984375 5.35546875 C-1.82984375 5.35546875 -2.81984375 5.35546875 -3.83984375 5.35546875 Z " fill="#000000" transform="translate(144.83984375,262.64453125)"/>
<path d="M0 0 C1.65 0 3.3 0 5 0 C6.32 3.3 7.64 6.6 9 10 C9.99 6.7 10.98 3.4 12 0 C13.65 0 15.3 0 17 0 C16.39216684 6.36742294 14.97524315 12.19767201 13.125 18.3125 C12.86847656 19.20517578 12.61195313 20.09785156 12.34765625 21.01757812 C11.96287109 22.30245117 11.96287109 22.30245117 11.5703125 23.61328125 C11.22637451 24.77017456 11.22637451 24.77017456 10.87548828 25.95043945 C9.89400725 28.24813418 8.97384846 29.47431567 7 31 C3.8125 31.1875 3.8125 31.1875 1 31 C1 29.35 1 27.7 1 26 C1.99 25.67 2.98 25.34 4 25 C5.56875717 20.19979094 4.16719619 16.50857976 2.5625 11.9375 C1.15414029 7.83943476 0 4.40257849 0 0 Z " fill="#000000" transform="translate(222,218)"/>
<path d="M0 0 C2.248125 -0.103125 4.49625 -0.20625 6.8125 -0.3125 C8.70935547 -0.39951172 8.70935547 -0.39951172 10.64453125 -0.48828125 C14 0 14 0 15.9375 1.96875 C17.35549034 6.01419302 17.32640803 9.56333913 17.1875 13.8125 C17.16719727 14.99489258 17.16719727 14.99489258 17.14648438 16.20117188 C17.11133456 18.13441169 17.05753361 20.06729682 17 22 C15.02 22 13.04 22 11 22 C10.67 16.72 10.34 11.44 10 6 C9.01 6 8.02 6 7 6 C6.67 11.28 6.34 16.56 6 22 C4.02 22 2.04 22 0 22 C0 14.74 0 7.48 0 0 Z " fill="#000000" transform="translate(200,263)"/>
<path d="M0 0 C0.79148438 -0.02578125 1.58296875 -0.0515625 2.3984375 -0.078125 C5.13330433 0.32490801 5.93448992 1.11352714 7.625 3.25 C9.23225635 6.46451269 8.68248185 9.68612536 8.625 13.25 C4.995 13.25 1.365 13.25 -2.375 13.25 C-2.045 14.24 -1.715 15.23 -1.375 16.25 C1.8217 17.62001429 4.32403842 17.0752404 7.625 16.25 C7.667721 17.91611905 7.66563832 19.58382885 7.625 21.25 C5.89280072 22.98219928 3.60473192 22.46291761 1.25 22.5 C0.27289063 22.52578125 -0.70421875 22.5515625 -1.7109375 22.578125 C-4.375 22.25 -4.375 22.25 -6.1640625 20.921875 C-9.26557522 16.63978646 -8.84982388 11.29600974 -8.375 6.25 C-6.14226674 1.4933074 -5.14874024 0.09997554 0 0 Z M-0.375 4.25 C-1.035 5.57 -1.695 6.89 -2.375 8.25 C-0.725 8.25 0.925 8.25 2.625 8.25 C2.625 7.26 2.625 6.27 2.625 5.25 C1.635 4.92 0.645 4.59 -0.375 4.25 Z " fill="#000000" transform="translate(151.375,217.75)"/>
<path d="M0 0 C1.31291016 -0.03867188 1.31291016 -0.03867188 2.65234375 -0.078125 C5.59006618 0.32182425 6.26560706 0.94085465 8.0625 3.25 C8.40307617 5.3347168 8.40307617 5.3347168 8.35546875 7.69921875 C8.34580078 8.54677734 8.33613281 9.39433594 8.32617188 10.26757812 C8.30103516 11.14865234 8.27589844 12.02972656 8.25 12.9375 C8.22969727 14.27651367 8.22969727 14.27651367 8.20898438 15.64257812 C8.17364079 17.84566166 8.12430493 20.04752582 8.0625 22.25 C-1.51098491 23.64159238 -1.51098491 23.64159238 -6.125 22.375 C-8.63853424 19.42809778 -8.58566535 17.13642603 -8.3515625 13.34765625 C-7.9375 11.25 -7.9375 11.25 -6.375 9.1875 C-3.14158888 7.94388034 -0.36869989 8.05204616 3.0625 8.25 C2.4025 7.26 1.7425 6.27 1.0625 5.25 C-1.2475 5.58 -3.5575 5.91 -5.9375 6.25 C-6.2675 4.6 -6.5975 2.95 -6.9375 1.25 C-4.48367866 0.02308933 -2.73765897 0.04824069 0 0 Z M-2.9375 14.25 C-2.6075 15.57 -2.2775 16.89 -1.9375 18.25 C-0.6175 17.92 0.7025 17.59 2.0625 17.25 C2.3925 15.6 2.7225 13.95 3.0625 12.25 C-0.12240007 11.9726499 -0.12240007 11.9726499 -2.9375 14.25 Z " fill="#000000" transform="translate(132.9375,217.75)"/>
<path d="M0 0 C2.84721393 0.18700913 4.0979283 0.31843284 6.4375 2 C7.93105826 5.82724305 8.13639141 9.46742324 8.4375 13.5625 C4.4775 13.5625 0.5175 13.5625 -3.5625 13.5625 C-3.2325 14.8825 -2.9025 16.2025 -2.5625 17.5625 C0.78002724 17.63677838 3.2410914 17.62796953 6.4375 16.5625 C6.7675 18.2125 7.0975 19.8625 7.4375 21.5625 C4.38288424 23.35769559 2.39430605 23.80669962 -1.125 23.4375 C-1.88941406 23.37304688 -2.65382812 23.30859375 -3.44140625 23.2421875 C-6.35917995 22.30721029 -7.12870211 21.25535166 -8.5625 18.5625 C-8.99609375 15.50390625 -8.99609375 15.50390625 -9 12.125 C-9.01933594 11.01253906 -9.03867188 9.90007812 -9.05859375 8.75390625 C-8.21658543 3.33720705 -5.72198234 -0.16459171 0 0 Z M-1.5625 5.5625 C-2.2225 6.8825 -2.8825 8.2025 -3.5625 9.5625 C-1.5825 9.5625 0.3975 9.5625 2.4375 9.5625 C2.1075 8.2425 1.7775 6.9225 1.4375 5.5625 C0.4475 5.5625 -0.5425 5.5625 -1.5625 5.5625 Z " fill="#000000" transform="translate(178.5625,262.4375)"/>
<path d="M0 0 C2.0625 1.4375 2.0625 1.4375 3 4 C3.22031805 7.04773304 3.13525427 9.9342365 3 13 C-0.63 13 -4.26 13 -8 13 C-7.67 14.32 -7.34 15.64 -7 17 C-4.03 16.67 -1.06 16.34 2 16 C2 17.98 2 19.96 2 22 C-7.12478032 23.54657293 -7.12478032 23.54657293 -11 21 C-14.10611056 16.50149504 -14.80255271 12.31163174 -14 7 C-11.05178043 -0.37054892 -7.50702363 -0.93494067 0 0 Z M-6 4 C-6.66 5.65 -7.32 7.3 -8 9 C-6.02 9 -4.04 9 -2 9 C-2.66 7.35 -3.32 5.7 -4 4 C-4.66 4 -5.32 4 -6 4 Z " fill="#000000" transform="translate(261,263)"/>
<path d="M0 0 C1.65 0 3.3 0 5 0 C5.06058594 0.98742187 5.12117188 1.97484375 5.18359375 2.9921875 C5.26738281 4.27351562 5.35117187 5.55484375 5.4375 6.875 C5.51871094 8.15117187 5.59992188 9.42734375 5.68359375 10.7421875 C5.79206027 13.88300152 5.79206027 13.88300152 7 16 C7.99 15.67 8.98 15.34 10 15 C10.33 10.05 10.66 5.1 11 0 C12.65 0 14.3 0 16 0 C16.33 7.26 16.66 14.52 17 22 C3.65982516 22.4895477 3.65982516 22.4895477 1.0625 20.5625 C-0.56029428 16.64870202 -0.31510031 12.93790758 -0.1875 8.75 C-0.17396484 7.90953125 -0.16042969 7.0690625 -0.14648438 6.203125 C-0.11123464 4.13514062 -0.0574302 2.06748729 0 0 Z " fill="#000000" transform="translate(280,218)"/>
<path d="M0 0 C10.7421875 -0.1953125 10.7421875 -0.1953125 14 0 C16 2 16 2 16.22705078 4.06298828 C16.21657715 4.89040527 16.20610352 5.71782227 16.1953125 6.5703125 C16.18886719 7.46621094 16.18242187 8.36210937 16.17578125 9.28515625 C16.15902344 10.22230469 16.14226562 11.15945313 16.125 12.125 C16.11597656 13.06988281 16.10695313 14.01476562 16.09765625 14.98828125 C16.07404522 17.32577292 16.04111516 19.66276123 16 22 C14.35 22 12.7 22 11 22 C10.67 16.72 10.34 11.44 10 6 C9.01 6 8.02 6 7 6 C5.5192152 8.9615696 5.64685963 11.83506295 5.4375 15.125 C5.35371094 16.40632813 5.26992188 17.68765625 5.18359375 19.0078125 C5.09271484 20.48894531 5.09271484 20.48894531 5 22 C3.35 22 1.7 22 0 22 C0 14.74 0 7.48 0 0 Z " fill="#000000" transform="translate(266,263)"/>
<path d="M0 0 C1.98 0 3.96 0 6 0 C7.32 3.63 8.64 7.26 10 11 C10.99 7.37 11.98 3.74 13 0 C14.98 0 16.96 0 19 0 C17.7205886 7.60913098 15.57243067 14.73225897 13 22 C10.69 22 8.38 22 6 22 C4.99553896 18.7096777 3.99719244 15.41753178 3 12.125 C2.71382812 11.18785156 2.42765625 10.25070312 2.1328125 9.28515625 C1.86210937 8.38925781 1.59140625 7.49335938 1.3125 6.5703125 C1.06113281 5.74289551 0.80976563 4.91547852 0.55078125 4.06298828 C0 2 0 2 0 0 Z " fill="#000000" transform="translate(151,263)"/>
<path d="M0 0 C1 1 1 1 1.0625 3.5625 C1.041875 4.366875 1.02125 5.17125 1 6 C-1.31 5.67 -3.62 5.34 -6 5 C-6 5.99 -6 6.98 -6 8 C-4.576875 8.433125 -4.576875 8.433125 -3.125 8.875 C0 10 0 10 2 12 C2.67605634 19.09859155 2.67605634 19.09859155 0.5 22 C-3.17006041 23.46802416 -6.0509118 23.25477988 -10 23 C-10.66 22.67 -11.32 22.34 -12 22 C-12 20.35 -12 18.7 -12 17 C-9.36 17 -6.72 17 -4 17 C-5.81231023 15.09230502 -7.48552127 13.67255542 -9.6875 12.1875 C-12 10 -12 10 -12.5625 7 C-12 4 -12 4 -10.5 1.625 C-6.83451933 -0.75756243 -4.32507378 -0.35451424 0 0 Z " fill="#000000" transform="translate(77,263)"/>
<path d="M0 0 C1.65 0 3.3 0 5 0 C5 1.65 5 3.3 5 5 C6.32 5 7.64 5 9 5 C9 6.32 9 7.64 9 9 C7.68 9 6.36 9 5 9 C5 13.29 5 17.58 5 22 C6.32 22 7.64 22 9 22 C9 23.65 9 25.3 9 27 C2.9453125 27.1953125 2.9453125 27.1953125 1 27 C-1 25 -1 25 -1.1953125 21.5234375 C-1.18201493 20.14049032 -1.15816232 18.75761346 -1.125 17.375 C-1.11597656 16.66859375 -1.10695312 15.9621875 -1.09765625 15.234375 C-1.07407603 13.48943902 -1.03820461 11.74467705 -1 10 C-1.99 10 -2.98 10 -4 10 C-4 8.35 -4 6.7 -4 5 C-3.01 5 -2.02 5 -1 5 C-0.67 3.35 -0.34 1.7 0 0 Z " fill="#000000" transform="translate(164,213)"/>
<path d="M0 0 C1.65 0 3.3 0 5 0 C5 7.92 5 15.84 5 24 C7.97 24 10.94 24 14 24 C14 25.98 14 27.96 14 30 C9.38 30 4.76 30 0 30 C0 20.1 0 10.2 0 0 Z " fill="#000000" transform="translate(5,211)"/>
<path d="M0 0 C1.65 0 3.3 0 5 0 C5 1.65 5 3.3 5 5 C6.32 5 7.64 5 9 5 C9 6.65 9 8.3 9 10 C7.68 10 6.36 10 5 10 C5.33 13.96 5.66 17.92 6 22 C6.99 22 7.98 22 9 22 C9 23.65 9 25.3 9 27 C2.84765625 27.09765625 2.84765625 27.09765625 1 27 C0 26 0 26 -0.09765625 22.40234375 C-0.0909822 20.91403133 -0.07902183 19.42573568 -0.0625 17.9375 C-0.05798828 17.17888672 -0.05347656 16.42027344 -0.04882812 15.63867188 C-0.0370068 13.75908129 -0.01907078 11.87953101 0 10 C-1.32 10 -2.64 10 -4 10 C-4 8.35 -4 6.7 -4 5 C-2.68 5 -1.36 5 0 5 C0 3.35 0 1.7 0 0 Z " fill="#000000" transform="translate(287,258)"/>
<path d="M0 0 C0 1.98 0 3.96 0 6 C-1.32 6 -2.64 6 -4 6 C-4.33 11.61 -4.66 17.22 -5 23 C-6.98 23 -8.96 23 -11 23 C-11 15.74 -11 8.48 -11 1 C-4 0 -4 0 0 0 Z " fill="#000000" transform="translate(279,217)"/>
<path d="M0 0 C1.65 0 3.3 0 5 0 C5 10.56 5 21.12 5 32 C3.35 32 1.7 32 0 32 C0 21.44 0 10.88 0 0 Z " fill="#000000" transform="translate(57,254)"/>
<path d="M0 0 C3.63 0 7.26 0 11 0 C11 1.65 11 3.3 11 5 C10.35546875 5.17273438 9.7109375 5.34546875 9.046875 5.5234375 C6.59554118 6.92982628 6.59554118 6.92982628 6.390625 10.4765625 C6.32418219 11.858573 6.2780748 13.2416781 6.25 14.625 C6.22035156 15.33140625 6.19070312 16.0378125 6.16015625 16.765625 C6.08944643 18.50980047 6.04245965 20.25490827 6 22 C4.02 22 2.04 22 0 22 C0 14.74 0 7.48 0 0 Z " fill="#000000" transform="translate(188,263)"/>
<path d="M0 0 C1.65 0 3.3 0 5 0 C5 10.23 5 20.46 5 31 C3.35 31 1.7 31 0 31 C0 20.77 0 10.54 0 0 Z " fill="#000000" transform="translate(21,209)"/>
<path d="M0 0 C3.96 0 7.92 0 12 0 C12 1.65 12 3.3 12 5 C11.360625 5.12375 10.72125 5.2475 10.0625 5.375 C9.381875 5.58125 8.70125 5.7875 8 6 C6.5192152 8.9615696 6.64685963 11.83506295 6.4375 15.125 C6.35371094 16.40632813 6.26992187 17.68765625 6.18359375 19.0078125 C6.09271484 20.48894531 6.09271484 20.48894531 6 22 C4.35 22 2.7 22 1 22 C0.67 14.74 0.34 7.48 0 0 Z " fill="#000000" transform="translate(113,218)"/>
</svg>
